<?xml version='1.0' encoding='UTF-8'?>
<svg width="85mm" height="85mm" version="1.1" viewBox="0 0 85 85" xmlns="http://www.w3.org/2000/svg"><path d="M4,4H5V5H4zM5,4H6V5H5zM6,4H7V5H6zM7,4H8V5H7zM8,4H9V5H8zM9,4H10V5H9zM10,4H11V5H10zM17,4H18V5H17zM21,4H22V5H21zM22,4H23V5H22zM23,4H24V5H23zM27,4H28V5H27zM28,4H29V5H28zM29,4H30V5H29zM30,4H31V5H30zM32,4H33V5H32zM33,4H34V5H33zM34,4H35V5H34zM38,4H39V5H38zM39,4H40V5H39zM40,4H41V5H40zM41,4H42V5H41zM42,4H43V5H42zM44,4H45V5H44zM46,4H47V5H46zM47,4H48V5H47zM49,4H50V5H49zM53,4H54V5H53zM56,4H57V5H56zM57,4H58V5H57zM61,4H62V5H61zM62,4H63V5H62zM64,4H65V5H64zM65,4H66V5H65zM66,4H67V5H66zM68,4H69V5H68zM74,4H75V5H74zM75,4H76V5H75zM76,4H77V5H76zM77,4H78V5H77zM78,4H79V5H78zM79,4H80V5H79zM80,4H81V5H80zM4,5H5V6H4zM10,5H11V6H10zM14,5H15V6H14zM15,5H16V6H15zM16,5H17V6H16zM22,5H23V6H22zM23,5H24V6H23zM24,5H25V6H24zM25,5H26V6H25zM26,5H27V6H26zM28,5H29V6H28zM29,5H30V6H29zM30,5H31V6H30zM31,5H32V6H31zM33,5H34V6H33zM39,5H40V6H39zM40,5H41V6H40zM41,5H42V6H41zM45,5H46V6H45zM46,5H47V6H46zM48,5H49V6H48zM54,5H55V6H54zM57,5H58V6H57zM62,5H63V6H62zM64,5H65V6H64zM66,5H67V6H66zM67,5H68V6H67zM70,5H71V6H70zM72,5H73V6H72zM74,5H75V6H74zM80,5H81V6H80zM4,6H5V7H4zM6,6H7V7H6zM7,6H8V7H7zM8,6H9V7H8zM10,6H11V7H10zM14,6H15V7H14zM15,6H16V7H15zM19,6H20V7H19zM23,6H24V7H23zM25,6H26V7H25zM26,6H27V7H26zM27,6H28V7H27zM31,6H32V7H31zM33,6H34V7H33zM36,6H37V7H36zM38,6H39V7H38zM42,6H43V7H42zM43,6H44V7H43zM47,6H48V7H47zM48,6H49V7H48zM49,6H50V7H49zM56,6H57V7H56zM59,6H60V7H59zM60,6H61V7H60zM61,6H62V7H61zM64,6H65V7H64zM65,6H66V7H65zM66,6H67V7H66zM69,6H70V7H69zM72,6H73V7H72zM74,6H75V7H74zM76,6H77V7H76zM77,6H78V7H77zM78,6H79V7H78zM80,6H81V7H80zM4,7H5V8H4zM6,7H7V8H6zM7,7H8V8H7zM8,7H9V8H8zM10,7H11V8H10zM12,7H13V8H12zM13,7H14V8H13zM15,7H16V8H15zM20,7H21V8H20zM29,7H30V8H29zM30,7H31V8H30zM31,7H32V8H31zM32,7H33V8H32zM33,7H34V8H33zM35,7H36V8H35zM36,7H37V8H36zM39,7H40V8H39zM40,7H41V8H40zM41,7H42V8H41zM42,7H43V8H42zM43,7H44V8H43zM44,7H45V8H44zM47,7H48V8H47zM48,7H49V8H48zM51,7H52V8H51zM53,7H54V8H53zM57,7H58V8H57zM58,7H59V8H58zM62,7H63V8H62zM64,7H65V8H64zM66,7H67V8H66zM72,7H73V8H72zM74,7H75V8H74zM76,7H77V8H76zM77,7H78V8H77zM78,7H79V8H78zM80,7H81V8H80zM4,8H5V9H4zM6,8H7V9H6zM7,8H8V9H7zM8,8H9V9H8zM10,8H11V9H10zM12,8H13V9H12zM13,8H14V9H13zM15,8H16V9H15zM17,8H18V9H17zM19,8H20V9H19zM20,8H21V9H20zM26,8H27V9H26zM28,8H29V9H28zM29,8H30V9H29zM30,8H31V9H30zM31,8H32V9H31zM32,8H33V9H32zM33,8H34V9H33zM34,8H35V9H34zM35,8H36V9H35zM39,8H40V9H39zM40,8H41V9H40zM41,8H42V9H41zM45,8H46V9H45zM46,8H47V9H46zM47,8H48V9H47zM48,8H49V9H48zM50,8H51V9H50zM51,8H52V9H51zM52,8H53V9H52zM53,8H54V9H53zM54,8H55V9H54zM55,8H56V9H55zM61,8H62V9H61zM62,8H63V9H62zM64,8H65V9H64zM66,8H67V9H66zM68,8H69V9H68zM69,8H70V9H69zM70,8H71V9H70zM71,8H72V9H71zM72,8H73V9H72zM74,8H75V9H74zM76,8H77V9H76zM77,8H78V9H77zM78,8H79V9H78zM80,8H81V9H80zM4,9H5V10H4zM10,9H11V10H10zM13,9H14V10H13zM14,9H15V10H14zM15,9H16V10H15zM18,9H19V10H18zM19,9H20V10H19zM20,9H21V10H20zM23,9H24V10H23zM25,9H26V10H25zM26,9H27V10H26zM27,9H28V10H27zM28,9H29V10H28zM32,9H33V10H32zM38,9H39V10H38zM39,9H40V10H39zM41,9H42V10H41zM42,9H43V10H42zM43,9H44V10H43zM45,9H46V10H45zM47,9H48V10H47zM48,9H49V10H48zM50,9H51V10H50zM54,9H55V10H54zM55,9H56V10H55zM57,9H58V10H57zM59,9H60V10H59zM61,9H62V10H61zM64,9H65V10H64zM66,9H67V10H66zM69,9H70V10H69zM70,9H71V10H70zM74,9H75V10H74zM80,9H81V10H80zM4,10H5V11H4zM5,10H6V11H5zM6,10H7V11H6zM7,10H8V11H7zM8,10H9V11H8zM9,10H10V11H9zM10,10H11V11H10zM12,10H13V11H12zM14,10H15V11H14zM16,10H17V11H16zM18,10H19V11H18zM20,10H21V11H20zM22,10H23V11H22zM24,10H25V11H24zM26,10H27V11H26zM28,10H29V11H28zM30,10H31V11H30zM32,10H33V11H32zM34,10H35V11H34zM36,10H37V11H36zM38,10H39V11H38zM40,10H41V11H40zM42,10H43V11H42zM44,10H45V11H44zM46,10H47V11H46zM48,10H49V11H48zM50,10H51V11H50zM52,10H53V11H52zM54,10H55V11H54zM56,10H57V11H56zM58,10H59V11H58zM60,10H61V11H60zM62,10H63V11H62zM64,10H65V11H64zM66,10H67V11H66zM68,10H69V11H68zM70,10H71V11H70zM72,10H73V11H72zM74,10H75V11H74zM75,10H76V11H75zM76,10H77V11H76zM77,10H78V11H77zM78,10H79V11H78zM79,10H80V11H79zM80,10H81V11H80zM15,11H16V12H15zM19,11H20V12H19zM20,11H21V12H20zM22,11H23V12H22zM23,11H24V12H23zM25,11H26V12H25zM26,11H27V12H26zM28,11H29V12H28zM32,11H33V12H32zM33,11H34V12H33zM37,11H38V12H37zM39,11H40V12H39zM40,11H41V12H40zM41,11H42V12H41zM43,11H44V12H43zM46,11H47V12H46zM47,11H48V12H47zM50,11H51V12H50zM54,11H55V12H54zM55,11H56V12H55zM56,11H57V12H56zM57,11H58V12H57zM58,11H59V12H58zM60,11H61V12H60zM67,11H68V12H67zM68,11H69V12H68zM69,11H70V12H69zM70,11H71V12H70zM71,11H72V12H71zM72,11H73V12H72zM4,12H5V13H4zM5,12H6V13H5zM9,12H10V13H9zM10,12H11V13H10zM11,12H12V13H11zM13,12H14V13H13zM14,12H15V13H14zM15,12H16V13H15zM16,12H17V13H16zM17,12H18V13H17zM18,12H19V13H18zM23,12H24V13H23zM25,12H26V13H25zM28,12H29V13H28zM29,12H30V13H29zM30,12H31V13H30zM31,12H32V13H31zM32,12H33V13H32zM35,12H36V13H35zM40,12H41V13H40zM41,12H42V13H41zM45,12H46V13H45zM46,12H47V13H46zM47,12H48V13H47zM49,12H50V13H49zM50,12H51V13H50zM51,12H52V13H51zM52,12H53V13H52zM53,12H54V13H53zM54,12H55V13H54zM55,12H56V13H55zM56,12H57V13H56zM57,12H58V13H57zM58,12H59V13H58zM61,12H62V13H61zM62,12H63V13H62zM63,12H64V13H63zM64,12H65V13H64zM66,12H67V13H66zM67,12H68V13H67zM68,12H69V13H68zM69,12H70V13H69zM70,12H71V13H70zM72,12H73V13H72zM76,12H77V13H76zM77,12H78V13H77zM4,13H5V14H4zM7,13H8V14H7zM9,13H10V14H9zM12,13H13V14H12zM13,13H14V14H13zM14,13H15V14H14zM15,13H16V14H15zM17,13H18V14H17zM18,13H19V14H18zM19,13H20V14H19zM20,13H21V14H20zM22,13H23V14H22zM25,13H26V14H25zM27,13H28V14H27zM28,13H29V14H28zM32,13H33V14H32zM33,13H34V14H33zM36,13H37V14H36zM38,13H39V14H38zM39,13H40V14H39zM40,13H41V14H40zM41,13H42V14H41zM42,13H43V14H42zM43,13H44V14H43zM44,13H45V14H44zM46,13H47V14H46zM47,13H48V14H47zM54,13H55V14H54zM55,13H56V14H55zM56,13H57V14H56zM58,13H59V14H58zM62,13H63V14H62zM64,13H65V14H64zM66,13H67V14H66zM67,13H68V14H67zM69,13H70V14H69zM73,13H74V14H73zM74,13H75V14H74zM75,13H76V14H75zM77,13H78V14H77zM78,13H79V14H78zM80,13H81V14H80zM4,14H5V15H4zM6,14H7V15H6zM7,14H8V15H7zM8,14H9V15H8zM10,14H11V15H10zM11,14H12V15H11zM12,14H13V15H12zM13,14H14V15H13zM16,14H17V15H16zM17,14H18V15H17zM18,14H19V15H18zM19,14H20V15H19zM21,14H22V15H21zM23,14H24V15H23zM34,14H35V15H34zM38,14H39V15H38zM40,14H41V15H40zM43,14H44V15H43zM44,14H45V15H44zM45,14H46V15H45zM46,14H47V15H46zM48,14H49V15H48zM49,14H50V15H49zM52,14H53V15H52zM53,14H54V15H53zM54,14H55V15H54zM55,14H56V15H55zM60,14H61V15H60zM62,14H63V15H62zM64,14H65V15H64zM66,14H67V15H66zM67,14H68V15H67zM71,14H72V15H71zM73,14H74V15H73zM75,14H76V15H75zM76,14H77V15H76zM4,15H5V16H4zM7,15H8V16H7zM9,15H10V16H9zM11,15H12V16H11zM13,15H14V16H13zM16,15H17V16H16zM18,15H19V16H18zM20,15H21V16H20zM21,15H22V16H21zM22,15H23V16H22zM23,15H24V16H23zM25,15H26V16H25zM26,15H27V16H26zM27,15H28V16H27zM28,15H29V16H28zM29,15H30V16H29zM30,15H31V16H30zM33,15H34V16H33zM37,15H38V16H37zM38,15H39V16H38zM43,15H44V16H43zM44,15H45V16H44zM47,15H48V16H47zM48,15H49V16H48zM49,15H50V16H49zM50,15H51V16H50zM56,15H57V16H56zM58,15H59V16H58zM59,15H60V16H59zM60,15H61V16H60zM61,15H62V16H61zM62,15H63V16H62zM63,15H64V16H63zM68,15H69V16H68zM71,15H72V16H71zM73,15H74V16H73zM74,15H75V16H74zM75,15H76V16H75zM76,15H77V16H76zM79,15H80V16H79zM6,16H7V17H6zM8,16H9V17H8zM9,16H10V17H9zM10,16H11V17H10zM12,16H13V17H12zM13,16H14V17H13zM14,16H15V17H14zM16,16H17V17H16zM19,16H20V17H19zM21,16H22V17H21zM25,16H26V17H25zM30,16H31V17H30zM33,16H34V17H33zM36,16H37V17H36zM39,16H40V17H39zM40,16H41V17H40zM44,16H45V17H44zM47,16H48V17H47zM48,16H49V17H48zM51,16H52V17H51zM54,16H55V17H54zM55,16H56V17H55zM57,16H58V17H57zM59,16H60V17H59zM61,16H62V17H61zM62,16H63V17H62zM63,16H64V17H63zM64,16H65V17H64zM65,16H66V17H65zM66,16H67V17H66zM67,16H68V17H67zM68,16H69V17H68zM69,16H70V17H69zM72,16H73V17H72zM73,16H74V17H73zM76,16H77V17H76zM77,16H78V17H77zM80,16H81V17H80zM4,17H5V18H4zM6,17H7V18H6zM8,17H9V18H8zM9,17H10V18H9zM12,17H13V18H12zM14,17H15V18H14zM15,17H16V18H15zM16,17H17V18H16zM17,17H18V18H17zM19,17H20V18H19zM20,17H21V18H20zM21,17H22V18H21zM22,17H23V18H22zM25,17H26V18H25zM26,17H27V18H26zM27,17H28V18H27zM28,17H29V18H28zM30,17H31V18H30zM33,17H34V18H33zM34,17H35V18H34zM39,17H40V18H39zM40,17H41V18H40zM41,17H42V18H41zM44,17H45V18H44zM46,17H47V18H46zM47,17H48V18H47zM48,17H49V18H48zM54,17H55V18H54zM56,17H57V18H56zM58,17H59V18H58zM59,17H60V18H59zM66,17H67V18H66zM67,17H68V18H67zM70,17H71V18H70zM72,17H73V18H72zM74,17H75V18H74zM75,17H76V18H75zM76,17H77V18H76zM79,17H80V18H79zM80,17H81V18H80zM4,18H5V19H4zM6,18H7V19H6zM9,18H10V19H9zM10,18H11V19H10zM11,18H12V19H11zM17,18H18V19H17zM18,18H19V19H18zM20,18H21V19H20zM23,18H24V19H23zM25,18H26V19H25zM26,18H27V19H26zM27,18H28V19H27zM28,18H29V19H28zM30,18H31V19H30zM31,18H32V19H31zM32,18H33V19H32zM35,18H36V19H35zM37,18H38V19H37zM38,18H39V19H38zM41,18H42V19H41zM42,18H43V19H42zM43,18H44V19H43zM46,18H47V19H46zM48,18H49V19H48zM50,18H51V19H50zM54,18H55V19H54zM62,18H63V19H62zM65,18H66V19H65zM66,18H67V19H66zM68,18H69V19H68zM70,18H71V19H70zM71,18H72V19H71zM76,18H77V19H76zM78,18H79V19H78zM4,19H5V20H4zM7,19H8V20H7zM8,19H9V20H8zM9,19H10V20H9zM12,19H13V20H12zM14,19H15V20H14zM18,19H19V20H18zM21,19H22V20H21zM22,19H23V20H22zM24,19H25V20H24zM26,19H27V20H26zM29,19H30V20H29zM30,19H31V20H30zM31,19H32V20H31zM33,19H34V20H33zM34,19H35V20H34zM35,19H36V20H35zM36,19H37V20H36zM37,19H38V20H37zM42,19H43V20H42zM43,19H44V20H43zM44,19H45V20H44zM48,19H49V20H48zM50,19H51V20H50zM51,19H52V20H51zM52,19H53V20H52zM54,19H55V20H54zM58,19H59V20H58zM60,19H61V20H60zM61,19H62V20H61zM62,19H63V20H62zM63,19H64V20H63zM65,19H66V20H65zM66,19H67V20H66zM70,19H71V20H70zM73,19H74V20H73zM74,19H75V20H74zM76,19H77V20H76zM77,19H78V20H77zM78,19H79V20H78zM79,19H80V20H79zM80,19H81V20H80zM4,20H5V21H4zM5,20H6V21H5zM6,20H7V21H6zM8,20H9V21H8zM10,20H11V21H10zM11,20H12V21H11zM12,20H13V21H12zM13,20H14V21H13zM14,20H15V21H14zM15,20H16V21H15zM19,20H20V21H19zM22,20H23V21H22zM24,20H25V21H24zM25,20H26V21H25zM26,20H27V21H26zM27,20H28V21H27zM29,20H30V21H29zM32,20H33V21H32zM33,20H34V21H33zM34,20H35V21H34zM37,20H38V21H37zM38,20H39V21H38zM39,20H40V21H39zM40,20H41V21H40zM47,20H48V21H47zM48,20H49V21H48zM51,20H52V21H51zM52,20H53V21H52zM55,20H56V21H55zM56,20H57V21H56zM61,20H62V21H61zM62,20H63V21H62zM64,20H65V21H64zM65,20H66V21H65zM66,20H67V21H66zM67,20H68V21H67zM68,20H69V21H68zM72,20H73V21H72zM73,20H74V21H73zM76,20H77V21H76zM80,20H81V21H80zM5,21H6V22H5zM6,21H7V22H6zM7,21H8V22H7zM8,21H9V22H8zM9,21H10V22H9zM11,21H12V22H11zM14,21H15V22H14zM19,21H20V22H19zM20,21H21V22H20zM21,21H22V22H21zM22,21H23V22H22zM23,21H24V22H23zM27,21H28V22H27zM28,21H29V22H28zM30,21H31V22H30zM31,21H32V22H31zM34,21H35V22H34zM35,21H36V22H35zM37,21H38V22H37zM38,21H39V22H38zM39,21H40V22H39zM40,21H41V22H40zM41,21H42V22H41zM43,21H44V22H43zM44,21H45V22H44zM45,21H46V22H45zM46,21H47V22H46zM48,21H49V22H48zM50,21H51V22H50zM54,21H55V22H54zM55,21H56V22H55zM58,21H59V22H58zM59,21H60V22H59zM66,21H67V22H66zM70,21H71V22H70zM76,21H77V22H76zM77,21H78V22H77zM78,21H79V22H78zM80,21H81V22H80zM5,22H6V23H5zM8,22H9V23H8zM9,22H10V23H9zM10,22H11V23H10zM11,22H12V23H11zM12,22H13V23H12zM13,22H14V23H13zM15,22H16V23H15zM20,22H21V23H20zM25,22H26V23H25zM29,22H30V23H29zM32,22H33V23H32zM35,22H36V23H35zM36,22H37V23H36zM37,22H38V23H37zM38,22H39V23H38zM41,22H42V23H41zM42,22H43V23H42zM45,22H46V23H45zM46,22H47V23H46zM49,22H50V23H49zM51,22H52V23H51zM52,22H53V23H52zM53,22H54V23H53zM56,22H57V23H56zM57,22H58V23H57zM61,22H62V23H61zM63,22H64V23H63zM64,22H65V23H64zM68,22H69V23H68zM70,22H71V23H70zM71,22H72V23H71zM72,22H73V23H72zM73,22H74V23H73zM74,22H75V23H74zM75,22H76V23H75zM77,22H78V23H77zM79,22H80V23H79zM80,22H81V23H80zM6,23H7V24H6zM7,23H8V24H7zM8,23H9V24H8zM11,23H12V24H11zM13,23H14V24H13zM16,23H17V24H16zM17,23H18V24H17zM20,23H21V24H20zM21,23H22V24H21zM23,23H24V24H23zM33,23H34V24H33zM36,23H37V24H36zM37,23H38V24H37zM41,23H42V24H41zM44,23H45V24H44zM46,23H47V24H46zM47,23H48V24H47zM48,23H49V24H48zM49,23H50V24H49zM50,23H51V24H50zM53,23H54V24H53zM56,23H57V24H56zM57,23H58V24H57zM59,23H60V24H59zM60,23H61V24H60zM61,23H62V24H61zM63,23H64V24H63zM65,23H66V24H65zM66,23H67V24H66zM68,23H69V24H68zM70,23H71V24H70zM74,23H75V24H74zM76,23H77V24H76zM79,23H80V24H79zM5,24H6V25H5zM10,24H11V25H10zM11,24H12V25H11zM13,24H14V25H13zM14,24H15V25H14zM15,24H16V25H15zM17,24H18V25H17zM18,24H19V25H18zM19,24H20V25H19zM20,24H21V25H20zM23,24H24V25H23zM24,24H25V25H24zM25,24H26V25H25zM28,24H29V25H28zM31,24H32V25H31zM32,24H33V25H32zM33,24H34V25H33zM34,24H35V25H34zM35,24H36V25H35zM40,24H41V25H40zM41,24H42V25H41zM42,24H43V25H42zM49,24H50V25H49zM52,24H53V25H52zM53,24H54V25H53zM54,24H55V25H54zM55,24H56V25H55zM56,24H57V25H56zM57,24H58V25H57zM66,24H67V25H66zM67,24H68V25H67zM68,24H69V25H68zM69,24H70V25H69zM70,24H71V25H70zM72,24H73V25H72zM73,24H74V25H73zM75,24H76V25H75zM78,24H79V25H78zM80,24H81V25H80zM5,25H6V26H5zM7,25H8V26H7zM11,25H12V26H11zM14,25H15V26H14zM18,25H19V26H18zM20,25H21V26H20zM24,25H25V26H24zM27,25H28V26H27zM28,25H29V26H28zM31,25H32V26H31zM32,25H33V26H32zM33,25H34V26H33zM34,25H35V26H34zM36,25H37V26H36zM38,25H39V26H38zM39,25H40V26H39zM40,25H41V26H40zM41,25H42V26H41zM42,25H43V26H42zM45,25H46V26H45zM46,25H47V26H46zM48,25H49V26H48zM55,25H56V26H55zM56,25H57V26H56zM62,25H63V26H62zM63,25H64V26H63zM64,25H65V26H64zM66,25H67V26H66zM67,25H68V26H67zM68,25H69V26H68zM72,25H73V26H72zM73,25H74V26H73zM76,25H77V26H76zM78,25H79V26H78zM4,26H5V27H4zM5,26H6V27H5zM6,26H7V27H6zM8,26H9V27H8zM9,26H10V27H9zM10,26H11V27H10zM11,26H12V27H11zM15,26H16V27H15zM16,26H17V27H16zM17,26H18V27H17zM21,26H22V27H21zM24,26H25V27H24zM25,26H26V27H25zM27,26H28V27H27zM29,26H30V27H29zM30,26H31V27H30zM36,26H37V27H36zM37,26H38V27H37zM38,26H39V27H38zM39,26H40V27H39zM40,26H41V27H40zM42,26H43V27H42zM47,26H48V27H47zM49,26H50V27H49zM50,26H51V27H50zM51,26H52V27H51zM52,26H53V27H52zM53,26H54V27H53zM54,26H55V27H54zM57,26H58V27H57zM59,26H60V27H59zM60,26H61V27H60zM61,26H62V27H61zM62,26H63V27H62zM65,26H66V27H65zM66,26H67V27H66zM67,26H68V27H67zM69,26H70V27H69zM70,26H71V27H70zM71,26H72V27H71zM73,26H74V27H73zM77,26H78V27H77zM78,26H79V27H78zM79,26H80V27H79zM5,27H6V28H5zM9,27H10V28H9zM17,27H18V28H17zM19,27H20V28H19zM20,27H21V28H20zM21,27H22V28H21zM22,27H23V28H22zM24,27H25V28H24zM26,27H27V28H26zM28,27H29V28H28zM30,27H31V28H30zM32,27H33V28H32zM35,27H36V28H35zM36,27H37V28H36zM37,27H38V28H37zM39,27H40V28H39zM40,27H41V28H40zM41,27H42V28H41zM42,27H43V28H42zM45,27H46V28H45zM46,27H47V28H46zM49,27H50V28H49zM50,27H51V28H50zM51,27H52V28H51zM53,27H54V28H53zM54,27H55V28H54zM56,27H57V28H56zM59,27H60V28H59zM60,27H61V28H60zM65,27H66V28H65zM66,27H67V28H66zM67,27H68V28H67zM70,27H71V28H70zM74,27H75V28H74zM76,27H77V28H76zM79,27H80V28H79zM80,27H81V28H80zM5,28H6V29H5zM8,28H9V29H8zM9,28H10V29H9zM10,28H11V29H10zM11,28H12V29H11zM12,28H13V29H12zM13,28H14V29H13zM15,28H16V29H15zM17,28H18V29H17zM18,28H19V29H18zM21,28H22V29H21zM22,28H23V29H22zM24,28H25V29H24zM25,28H26V29H25zM26,28H27V29H26zM28,28H29V29H28zM29,28H30V29H29zM30,28H31V29H30zM31,28H32V29H31zM32,28H33V29H32zM33,28H34V29H33zM36,28H37V29H36zM38,28H39V29H38zM40,28H41V29H40zM41,28H42V29H41zM46,28H47V29H46zM47,28H48V29H47zM48,28H49V29H48zM49,28H50V29H49zM50,28H51V29H50zM51,28H52V29H51zM52,28H53V29H52zM53,28H54V29H53zM54,28H55V29H54zM55,28H56V29H55zM56,28H57V29H56zM59,28H60V29H59zM61,28H62V29H61zM63,28H64V29H63zM64,28H65V29H64zM65,28H66V29H65zM66,28H67V29H66zM68,28H69V29H68zM69,28H70V29H69zM71,28H72V29H71zM72,28H73V29H72zM73,28H74V29H73zM74,28H75V29H74zM75,28H76V29H75zM76,28H77V29H76zM77,28H78V29H77zM6,29H7V30H6zM7,29H8V30H7zM8,29H9V30H8zM12,29H13V30H12zM13,29H14V30H13zM15,29H16V30H15zM17,29H18V30H17zM18,29H19V30H18zM19,29H20V30H19zM20,29H21V30H20zM25,29H26V30H25zM27,29H28V30H27zM28,29H29V30H28zM32,29H33V30H32zM34,29H35V30H34zM37,29H38V30H37zM41,29H42V30H41zM42,29H43V30H42zM44,29H45V30H44zM45,29H46V30H45zM46,29H47V30H46zM50,29H51V30H50zM54,29H55V30H54zM55,29H56V30H55zM56,29H57V30H56zM59,29H60V30H59zM60,29H61V30H60zM62,29H63V30H62zM65,29H66V30H65zM66,29H67V30H66zM68,29H69V30H68zM70,29H71V30H70zM72,29H73V30H72zM76,29H77V30H76zM78,29H79V30H78zM4,30H5V31H4zM5,30H6V31H5zM6,30H7V31H6zM8,30H9V31H8zM10,30H11V31H10zM12,30H13V31H12zM15,30H16V31H15zM17,30H18V31H17zM20,30H21V31H20zM21,30H22V31H21zM22,30H23V31H22zM23,30H24V31H23zM24,30H25V31H24zM27,30H28V31H27zM28,30H29V31H28zM30,30H31V31H30zM32,30H33V31H32zM37,30H38V31H37zM44,30H45V31H44zM45,30H46V31H45zM46,30H47V31H46zM50,30H51V31H50zM52,30H53V31H52zM54,30H55V31H54zM55,30H56V31H55zM57,30H58V31H57zM59,30H60V31H59zM60,30H61V31H60zM61,30H62V31H61zM62,30H63V31H62zM66,30H67V31H66zM72,30H73V31H72zM74,30H75V31H74zM76,30H77V31H76zM77,30H78V31H77zM4,31H5V32H4zM8,31H9V32H8zM12,31H13V32H12zM15,31H16V32H15zM17,31H18V32H17zM18,31H19V32H18zM19,31H20V32H19zM21,31H22V32H21zM23,31H24V32H23zM24,31H25V32H24zM26,31H27V32H26zM27,31H28V32H27zM28,31H29V32H28zM32,31H33V32H32zM33,31H34V32H33zM37,31H38V32H37zM42,31H43V32H42zM46,31H47V32H46zM50,31H51V32H50zM54,31H55V32H54zM55,31H56V32H55zM57,31H58V32H57zM61,31H62V32H61zM62,31H63V32H62zM63,31H64V32H63zM64,31H65V32H64zM65,31H66V32H65zM66,31H67V32H66zM67,31H68V32H67zM72,31H73V32H72zM76,31H77V32H76zM77,31H78V32H77zM78,31H79V32H78zM4,32H5V33H4zM5,32H6V33H5zM6,32H7V33H6zM7,32H8V33H7zM8,32H9V33H8zM9,32H10V33H9zM10,32H11V33H10zM11,32H12V33H11zM12,32H13V33H12zM13,32H14V33H13zM15,32H16V33H15zM16,32H17V33H16zM17,32H18V33H17zM25,32H26V33H25zM26,32H27V33H26zM27,32H28V33H27zM28,32H29V33H28zM29,32H30V33H29zM30,32H31V33H30zM31,32H32V33H31zM32,32H33V33H32zM35,32H36V33H35zM37,32H38V33H37zM39,32H40V33H39zM40,32H41V33H40zM42,32H43V33H42zM45,32H46V33H45zM46,32H47V33H46zM47,32H48V33H47zM50,32H51V33H50zM51,32H52V33H51zM52,32H53V33H52zM53,32H54V33H53zM54,32H55V33H54zM55,32H56V33H55zM57,32H58V33H57zM60,32H61V33H60zM62,32H63V33H62zM64,32H65V33H64zM65,32H66V33H65zM66,32H67V33H66zM67,32H68V33H67zM71,32H72V33H71zM72,32H73V33H72zM73,32H74V33H73zM74,32H75V33H74zM75,32H76V33H75zM76,32H77V33H76zM4,33H5V34H4zM5,33H6V34H5zM6,33H7V34H6zM7,33H8V34H7zM9,33H10V34H9zM12,33H13V34H12zM15,33H16V34H15zM18,33H19V34H18zM21,33H22V34H21zM25,33H26V34H25zM26,33H27V34H26zM27,33H28V34H27zM28,33H29V34H28zM29,33H30V34H29zM30,33H31V34H30zM32,33H33V34H32zM33,33H34V34H33zM34,33H35V34H34zM36,33H37V34H36zM37,33H38V34H37zM39,33H40V34H39zM40,33H41V34H40zM41,33H42V34H41zM45,33H46V34H45zM46,33H47V34H46zM47,33H48V34H47zM48,33H49V34H48zM50,33H51V34H50zM51,33H52V34H51zM53,33H54V34H53zM54,33H55V34H54zM59,33H60V34H59zM60,33H61V34H60zM62,33H63V34H62zM63,33H64V34H63zM66,33H67V34H66zM67,33H68V34H67zM68,33H69V34H68zM72,33H73V34H72zM74,33H75V34H74zM76,33H77V34H76zM77,33H78V34H77zM79,33H80V34H79zM80,33H81V34H80zM4,34H5V35H4zM6,34H7V35H6zM7,34H8V35H7zM9,34H10V35H9zM10,34H11V35H10zM11,34H12V35H11zM12,34H13V35H12zM18,34H19V35H18zM19,34H20V35H19zM23,34H24V35H23zM24,34H25V35H24zM26,34H27V35H26zM28,34H29V35H28zM29,34H30V35H29zM30,34H31V35H30zM32,34H33V35H32zM34,34H35V35H34zM37,34H38V35H37zM39,34H40V35H39zM40,34H41V35H40zM44,34H45V35H44zM48,34H49V35H48zM49,34H50V35H49zM50,34H51V35H50zM51,34H52V35H51zM53,34H54V35H53zM54,34H55V35H54zM56,34H57V35H56zM60,34H61V35H60zM61,34H62V35H61zM64,34H65V35H64zM65,34H66V35H65zM71,34H72V35H71zM73,34H74V35H73zM75,34H76V35H75zM79,34H80V35H79zM80,34H81V35H80zM6,35H7V36H6zM9,35H10V36H9zM13,35H14V36H13zM15,35H16V36H15zM16,35H17V36H16zM17,35H18V36H17zM18,35H19V36H18zM19,35H20V36H19zM20,35H21V36H20zM21,35H22V36H21zM25,35H26V36H25zM27,35H28V36H27zM28,35H29V36H28zM29,35H30V36H29zM31,35H32V36H31zM34,35H35V36H34zM35,35H36V36H35zM38,35H39V36H38zM40,35H41V36H40zM41,35H42V36H41zM42,35H43V36H42zM43,35H44V36H43zM45,35H46V36H45zM47,35H48V36H47zM48,35H49V36H48zM50,35H51V36H50zM52,35H53V36H52zM53,35H54V36H53zM54,35H55V36H54zM55,35H56V36H55zM56,35H57V36H56zM58,35H59V36H58zM60,35H61V36H60zM67,35H68V36H67zM68,35H69V36H68zM69,35H70V36H69zM71,35H72V36H71zM73,35H74V36H73zM75,35H76V36H75zM77,35H78V36H77zM80,35H81V36H80zM4,36H5V37H4zM10,36H11V37H10zM14,36H15V37H14zM18,36H19V37H18zM20,36H21V37H20zM21,36H22V37H21zM22,36H23V37H22zM23,36H24V37H23zM24,36H25V37H24zM25,36H26V37H25zM26,36H27V37H26zM27,36H28V37H27zM28,36H29V37H28zM33,36H34V37H33zM34,36H35V37H34zM35,36H36V37H35zM37,36H38V37H37zM38,36H39V37H38zM39,36H40V37H39zM42,36H43V37H42zM51,36H52V37H51zM52,36H53V37H52zM55,36H56V37H55zM56,36H57V37H56zM60,36H61V37H60zM61,36H62V37H61zM64,36H65V37H64zM66,36H67V37H66zM67,36H68V37H67zM68,36H69V37H68zM71,36H72V37H71zM72,36H73V37H72zM76,36H77V37H76zM80,36H81V37H80zM4,37H5V38H4zM5,37H6V38H5zM8,37H9V38H8zM15,37H16V38H15zM17,37H18V38H17zM24,37H25V38H24zM25,37H26V38H25zM27,37H28V38H27zM28,37H29V38H28zM29,37H30V38H29zM30,37H31V38H30zM32,37H33V38H32zM34,37H35V38H34zM35,37H36V38H35zM36,37H37V38H36zM37,37H38V38H37zM38,37H39V38H38zM41,37H42V38H41zM42,37H43V38H42zM44,37H45V38H44zM45,37H46V38H45zM47,37H48V38H47zM48,37H49V38H48zM50,37H51V38H50zM51,37H52V38H51zM52,37H53V38H52zM54,37H55V38H54zM56,37H57V38H56zM60,37H61V38H60zM62,37H63V38H62zM63,37H64V38H63zM64,37H65V38H64zM69,37H70V38H69zM70,37H71V38H70zM71,37H72V38H71zM74,37H75V38H74zM77,37H78V38H77zM80,37H81V38H80zM7,38H8V39H7zM8,38H9V39H8zM9,38H10V39H9zM10,38H11V39H10zM11,38H12V39H11zM14,38H15V39H14zM15,38H16V39H15zM17,38H18V39H17zM18,38H19V39H18zM20,38H21V39H20zM21,38H22V39H21zM22,38H23V39H22zM23,38H24V39H23zM25,38H26V39H25zM28,38H29V39H28zM29,38H30V39H29zM33,38H34V39H33zM34,38H35V39H34zM36,38H37V39H36zM37,38H38V39H37zM38,38H39V39H38zM39,38H40V39H39zM41,38H42V39H41zM46,38H47V39H46zM47,38H48V39H47zM50,38H51V39H50zM51,38H52V39H51zM54,38H55V39H54zM60,38H61V39H60zM62,38H63V39H62zM65,38H66V39H65zM68,38H69V39H68zM71,38H72V39H71zM72,38H73V39H72zM74,38H75V39H74zM75,38H76V39H75zM78,38H79V39H78zM5,39H6V40H5zM6,39H7V40H6zM9,39H10V40H9zM13,39H14V40H13zM17,39H18V40H17zM18,39H19V40H18zM20,39H21V40H20zM21,39H22V40H21zM22,39H23V40H22zM24,39H25V40H24zM27,39H28V40H27zM28,39H29V40H28zM29,39H30V40H29zM30,39H31V40H30zM32,39H33V40H32zM34,39H35V40H34zM35,39H36V40H35zM36,39H37V40H36zM37,39H38V40H37zM38,39H39V40H38zM39,39H40V40H39zM41,39H42V40H41zM43,39H44V40H43zM44,39H45V40H44zM47,39H48V40H47zM48,39H49V40H48zM50,39H51V40H50zM52,39H53V40H52zM54,39H55V40H54zM56,39H57V40H56zM57,39H58V40H57zM58,39H59V40H58zM59,39H60V40H59zM60,39H61V40H60zM61,39H62V40H61zM62,39H63V40H62zM63,39H64V40H63zM65,39H66V40H65zM67,39H68V40H67zM69,39H70V40H69zM75,39H76V40H75zM4,40H5V41H4zM5,40H6V41H5zM6,40H7V41H6zM7,40H8V41H7zM8,40H9V41H8zM9,40H10V41H9zM10,40H11V41H10zM12,40H13V41H12zM13,40H14V41H13zM15,40H16V41H15zM16,40H17V41H16zM19,40H20V41H19zM20,40H21V41H20zM21,40H22V41H21zM22,40H23V41H22zM25,40H26V41H25zM28,40H29V41H28zM29,40H30V41H29zM30,40H31V41H30zM31,40H32V41H31zM34,40H35V41H34zM36,40H37V41H36zM40,40H41V41H40zM41,40H42V41H41zM42,40H43V41H42zM44,40H45V41H44zM45,40H46V41H45zM47,40H48V41H47zM48,40H49V41H48zM55,40H56V41H55zM59,40H60V41H59zM61,40H62V41H61zM62,40H63V41H62zM63,40H64V41H63zM65,40H66V41H65zM67,40H68V41H67zM68,40H69V41H68zM70,40H71V41H70zM71,40H72V41H71zM72,40H73V41H72zM75,40H76V41H75zM76,40H77V41H76zM80,40H81V41H80zM4,41H5V42H4zM5,41H6V42H5zM6,41H7V42H6zM8,41H9V42H8zM12,41H13V42H12zM13,41H14V42H13zM14,41H15V42H14zM15,41H16V42H15zM16,41H17V42H16zM18,41H19V42H18zM19,41H20V42H19zM24,41H25V42H24zM25,41H26V42H25zM26,41H27V42H26zM28,41H29V42H28zM33,41H34V42H33zM34,41H35V42H34zM35,41H36V42H35zM36,41H37V42H36zM37,41H38V42H37zM40,41H41V42H40zM41,41H42V42H41zM43,41H44V42H43zM45,41H46V42H45zM46,41H47V42H46zM47,41H48V42H47zM48,41H49V42H48zM51,41H52V42H51zM56,41H57V42H56zM58,41H59V42H58zM62,41H63V42H62zM66,41H67V42H66zM67,41H68V42H67zM70,41H71V42H70zM71,41H72V42H71zM72,41H73V42H72zM76,41H77V42H76zM77,41H78V42H77zM5,42H6V43H5zM7,42H8V43H7zM9,42H10V43H9zM10,42H11V43H10zM11,42H12V43H11zM12,42H13V43H12zM13,42H14V43H13zM14,42H15V43H14zM15,42H16V43H15zM16,42H17V43H16zM19,42H20V43H19zM21,42H22V43H21zM23,42H24V43H23zM24,42H25V43H24zM26,42H27V43H26zM27,42H28V43H27zM28,42H29V43H28zM30,42H31V43H30zM32,42H33V43H32zM40,42H41V43H40zM42,42H43V43H42zM43,42H44V43H43zM44,42H45V43H44zM46,42H47V43H46zM48,42H49V43H48zM49,42H50V43H49zM54,42H55V43H54zM55,42H56V43H55zM56,42H57V43H56zM57,42H58V43H57zM62,42H63V43H62zM65,42H66V43H65zM66,42H67V43H66zM72,42H73V43H72zM74,42H75V43H74zM76,42H77V43H76zM77,42H78V43H77zM5,43H6V44H5zM8,43H9V44H8zM9,43H10V44H9zM13,43H14V44H13zM14,43H15V44H14zM15,43H16V44H15zM16,43H17V44H16zM20,43H21V44H20zM21,43H22V44H21zM22,43H23V44H22zM23,43H24V44H23zM25,43H26V44H25zM28,43H29V44H28zM29,43H30V44H29zM33,43H34V44H33zM36,43H37V44H36zM38,43H39V44H38zM41,43H42V44H41zM42,43H43V44H42zM44,43H45V44H44zM47,43H48V44H47zM48,43H49V44H48zM49,43H50V44H49zM50,43H51V44H50zM53,43H54V44H53zM55,43H56V44H55zM56,43H57V44H56zM58,43H59V44H58zM60,43H61V44H60zM62,43H63V44H62zM63,43H64V44H63zM66,43H67V44H66zM72,43H73V44H72zM73,43H74V44H73zM74,43H75V44H74zM76,43H77V44H76zM77,43H78V44H77zM78,43H79V44H78zM4,44H5V45H4zM5,44H6V45H5zM6,44H7V45H6zM9,44H10V45H9zM10,44H11V45H10zM12,44H13V45H12zM13,44H14V45H13zM16,44H17V45H16zM17,44H18V45H17zM18,44H19V45H18zM19,44H20V45H19zM22,44H23V45H22zM29,44H30V45H29zM30,44H31V45H30zM32,44H33V45H32zM33,44H34V45H33zM34,44H35V45H34zM35,44H36V45H35zM36,44H37V45H36zM39,44H40V45H39zM40,44H41V45H40zM41,44H42V45H41zM45,44H46V45H45zM46,44H47V45H46zM51,44H52V45H51zM52,44H53V45H52zM53,44H54V45H53zM54,44H55V45H54zM55,44H56V45H55zM56,44H57V45H56zM57,44H58V45H57zM58,44H59V45H58zM61,44H62V45H61zM62,44H63V45H62zM64,44H65V45H64zM65,44H66V45H65zM67,44H68V45H67zM68,44H69V45H68zM69,44H70V45H69zM70,44H71V45H70zM71,44H72V45H71zM72,44H73V45H72zM73,44H74V45H73zM74,44H75V45H74zM75,44H76V45H75zM76,44H77V45H76zM79,44H80V45H79zM80,44H81V45H80zM4,45H5V46H4zM5,45H6V46H5zM8,45H9V46H8zM9,45H10V46H9zM11,45H12V46H11zM14,45H15V46H14zM18,45H19V46H18zM21,45H22V46H21zM22,45H23V46H22zM24,45H25V46H24zM26,45H27V46H26zM28,45H29V46H28zM29,45H30V46H29zM32,45H33V46H32zM34,45H35V46H34zM36,45H37V46H36zM39,45H40V46H39zM43,45H44V46H43zM44,45H45V46H44zM45,45H46V46H45zM46,45H47V46H46zM47,45H48V46H47zM50,45H51V46H50zM51,45H52V46H51zM55,45H56V46H55zM58,45H59V46H58zM64,45H65V46H64zM68,45H69V46H68zM73,45H74V46H73zM75,45H76V46H75zM76,45H77V46H76zM80,45H81V46H80zM8,46H9V47H8zM9,46H10V47H9zM10,46H11V47H10zM12,46H13V47H12zM14,46H15V47H14zM16,46H17V47H16zM17,46H18V47H17zM18,46H19V47H18zM19,46H20V47H19zM20,46H21V47H20zM21,46H22V47H21zM22,46H23V47H22zM23,46H24V47H23zM24,46H25V47H24zM25,46H26V47H25zM26,46H27V47H26zM27,46H28V47H27zM28,46H29V47H28zM31,46H32V47H31zM32,46H33V47H32zM33,46H34V47H33zM38,46H39V47H38zM43,46H44V47H43zM44,46H45V47H44zM46,46H47V47H46zM47,46H48V47H47zM48,46H49V47H48zM50,46H51V47H50zM52,46H53V47H52zM53,46H54V47H53zM55,46H56V47H55zM57,46H58V47H57zM59,46H60V47H59zM60,46H61V47H60zM61,46H62V47H61zM62,46H63V47H62zM64,46H65V47H64zM67,46H68V47H67zM69,46H70V47H69zM72,46H73V47H72zM73,46H74V47H73zM75,46H76V47H75zM77,46H78V47H77zM78,46H79V47H78zM79,46H80V47H79zM80,46H81V47H80zM4,47H5V48H4zM5,47H6V48H5zM6,47H7V48H6zM9,47H10V48H9zM11,47H12V48H11zM14,47H15V48H14zM15,47H16V48H15zM16,47H17V48H16zM17,47H18V48H17zM18,47H19V48H18zM19,47H20V48H19zM21,47H22V48H21zM22,47H23V48H22zM26,47H27V48H26zM28,47H29V48H28zM31,47H32V48H31zM32,47H33V48H32zM33,47H34V48H33zM34,47H35V48H34zM36,47H37V48H36zM41,47H42V48H41zM54,47H55V48H54zM55,47H56V48H55zM58,47H59V48H58zM59,47H60V48H59zM61,47H62V48H61zM63,47H64V48H63zM68,47H69V48H68zM71,47H72V48H71zM73,47H74V48H73zM75,47H76V48H75zM77,47H78V48H77zM79,47H80V48H79zM4,48H5V49H4zM5,48H6V49H5zM9,48H10V49H9zM10,48H11V49H10zM12,48H13V49H12zM13,48H14V49H13zM14,48H15V49H14zM19,48H20V49H19zM22,48H23V49H22zM23,48H24V49H23zM24,48H25V49H24zM25,48H26V49H25zM26,48H27V49H26zM30,48H31V49H30zM31,48H32V49H31zM33,48H34V49H33zM34,48H35V49H34zM35,48H36V49H35zM37,48H38V49H37zM39,48H40V49H39zM40,48H41V49H40zM41,48H42V49H41zM45,48H46V49H45zM47,48H48V49H47zM52,48H53V49H52zM53,48H54V49H53zM54,48H55V49H54zM55,48H56V49H55zM56,48H57V49H56zM57,48H58V49H57zM58,48H59V49H58zM62,48H63V49H62zM65,48H66V49H65zM67,48H68V49H67zM69,48H70V49H69zM70,48H71V49H70zM71,48H72V49H71zM73,48H74V49H73zM75,48H76V49H75zM76,48H77V49H76zM79,48H80V49H79zM6,49H7V50H6zM8,49H9V50H8zM9,49H10V50H9zM11,49H12V50H11zM14,49H15V50H14zM16,49H17V50H16zM17,49H18V50H17zM18,49H19V50H18zM19,49H20V50H19zM20,49H21V50H20zM25,49H26V50H25zM26,49H27V50H26zM27,49H28V50H27zM28,49H29V50H28zM29,49H30V50H29zM30,49H31V50H30zM33,49H34V50H33zM34,49H35V50H34zM36,49H37V50H36zM37,49H38V50H37zM38,49H39V50H38zM39,49H40V50H39zM40,49H41V50H40zM41,49H42V50H41zM42,49H43V50H42zM46,49H47V50H46zM47,49H48V50H47zM48,49H49V50H48zM50,49H51V50H50zM51,49H52V50H51zM54,49H55V50H54zM58,49H59V50H58zM59,49H60V50H59zM60,49H61V50H60zM62,49H63V50H62zM64,49H65V50H64zM67,49H68V50H67zM68,49H69V50H68zM72,49H73V50H72zM74,49H75V50H74zM78,49H79V50H78zM80,49H81V50H80zM4,50H5V51H4zM6,50H7V51H6zM7,50H8V51H7zM8,50H9V51H8zM9,50H10V51H9zM10,50H11V51H10zM11,50H12V51H11zM12,50H13V51H12zM13,50H14V51H13zM16,50H17V51H16zM17,50H18V51H17zM18,50H19V51H18zM19,50H20V51H19zM22,50H23V51H22zM23,50H24V51H23zM24,50H25V51H24zM26,50H27V51H26zM28,50H29V51H28zM29,50H30V51H29zM30,50H31V51H30zM31,50H32V51H31zM32,50H33V51H32zM34,50H35V51H34zM35,50H36V51H35zM37,50H38V51H37zM39,50H40V51H39zM42,50H43V51H42zM43,50H44V51H43zM44,50H45V51H44zM45,50H46V51H45zM48,50H49V51H48zM49,50H50V51H49zM50,50H51V51H50zM51,50H52V51H51zM52,50H53V51H52zM53,50H54V51H53zM54,50H55V51H54zM55,50H56V51H55zM56,50H57V51H56zM57,50H58V51H57zM63,50H64V51H63zM65,50H66V51H65zM66,50H67V51H66zM67,50H68V51H67zM68,50H69V51H68zM70,50H71V51H70zM71,50H72V51H71zM72,50H73V51H72zM73,50H74V51H73zM74,50H75V51H74zM75,50H76V51H75zM76,50H77V51H76zM77,50H78V51H77zM78,50H79V51H78zM8,51H9V52H8zM12,51H13V52H12zM14,51H15V52H14zM15,51H16V52H15zM17,51H18V52H17zM19,51H20V52H19zM20,51H21V52H20zM21,51H22V52H21zM22,51H23V52H22zM23,51H24V52H23zM26,51H27V52H26zM28,51H29V52H28zM32,51H33V52H32zM33,51H34V52H33zM35,51H36V52H35zM36,51H37V52H36zM37,51H38V52H37zM38,51H39V52H38zM40,51H41V52H40zM43,51H44V52H43zM46,51H47V52H46zM47,51H48V52H47zM48,51H49V52H48zM50,51H51V52H50zM54,51H55V52H54zM56,51H57V52H56zM58,51H59V52H58zM59,51H60V52H59zM62,51H63V52H62zM67,51H68V52H67zM69,51H70V52H69zM70,51H71V52H70zM72,51H73V52H72zM76,51H77V52H76zM80,51H81V52H80zM5,52H6V53H5zM7,52H8V53H7zM8,52H9V53H8zM10,52H11V53H10zM12,52H13V53H12zM13,52H14V53H13zM15,52H16V53H15zM17,52H18V53H17zM18,52H19V53H18zM21,52H22V53H21zM25,52H26V53H25zM26,52H27V53H26zM28,52H29V53H28zM30,52H31V53H30zM32,52H33V53H32zM36,52H37V53H36zM37,52H38V53H37zM38,52H39V53H38zM39,52H40V53H39zM40,52H41V53H40zM42,52H43V53H42zM43,52H44V53H43zM44,52H45V53H44zM45,52H46V53H45zM48,52H49V53H48zM49,52H50V53H49zM50,52H51V53H50zM52,52H53V53H52zM54,52H55V53H54zM55,52H56V53H55zM56,52H57V53H56zM59,52H60V53H59zM61,52H62V53H61zM63,52H64V53H63zM65,52H66V53H65zM66,52H67V53H66zM67,52H68V53H67zM68,52H69V53H68zM69,52H70V53H69zM70,52H71V53H70zM72,52H73V53H72zM74,52H75V53H74zM76,52H77V53H76zM77,52H78V53H77zM4,53H5V54H4zM5,53H6V54H5zM7,53H8V54H7zM8,53H9V54H8zM12,53H13V54H12zM15,53H16V54H15zM16,53H17V54H16zM17,53H18V54H17zM24,53H25V54H24zM25,53H26V54H25zM26,53H27V54H26zM27,53H28V54H27zM28,53H29V54H28zM32,53H33V54H32zM34,53H35V54H34zM39,53H40V54H39zM40,53H41V54H40zM43,53H44V54H43zM45,53H46V54H45zM46,53H47V54H46zM48,53H49V54H48zM50,53H51V54H50zM54,53H55V54H54zM55,53H56V54H55zM59,53H60V54H59zM60,53H61V54H60zM62,53H63V54H62zM63,53H64V54H63zM64,53H65V54H64zM66,53H67V54H66zM72,53H73V54H72zM76,53H77V54H76zM79,53H80V54H79zM80,53H81V54H80zM4,54H5V55H4zM5,54H6V55H5zM8,54H9V55H8zM9,54H10V55H9zM10,54H11V55H10zM11,54H12V55H11zM12,54H13V55H12zM16,54H17V55H16zM17,54H18V55H17zM22,54H23V55H22zM25,54H26V55H25zM26,54H27V55H26zM28,54H29V55H28zM29,54H30V55H29zM30,54H31V55H30zM31,54H32V55H31zM32,54H33V55H32zM35,54H36V55H35zM38,54H39V55H38zM41,54H42V55H41zM43,54H44V55H43zM46,54H47V55H46zM49,54H50V55H49zM50,54H51V55H50zM51,54H52V55H51zM52,54H53V55H52zM53,54H54V55H53zM54,54H55V55H54zM57,54H58V55H57zM58,54H59V55H58zM59,54H60V55H59zM60,54H61V55H60zM61,54H62V55H61zM62,54H63V55H62zM64,54H65V55H64zM65,54H66V55H65zM66,54H67V55H66zM67,54H68V55H67zM71,54H72V55H71zM72,54H73V55H72zM73,54H74V55H73zM74,54H75V55H74zM75,54H76V55H75zM76,54H77V55H76zM77,54H78V55H77zM78,54H79V55H78zM79,54H80V55H79zM80,54H81V55H80zM4,55H5V56H4zM5,55H6V56H5zM6,55H7V56H6zM8,55H9V56H8zM16,55H17V56H16zM21,55H22V56H21zM23,55H24V56H23zM25,55H26V56H25zM26,55H27V56H26zM27,55H28V56H27zM28,55H29V56H28zM31,55H32V56H31zM32,55H33V56H32zM33,55H34V56H33zM38,55H39V56H38zM42,55H43V56H42zM46,55H47V56H46zM47,55H48V56H47zM51,55H52V56H51zM55,55H56V56H55zM57,55H58V56H57zM58,55H59V56H58zM61,55H62V56H61zM63,55H64V56H63zM64,55H65V56H64zM65,55H66V56H65zM67,55H68V56H67zM72,55H73V56H72zM73,55H74V56H73zM76,55H77V56H76zM77,55H78V56H77zM78,55H79V56H78zM79,55H80V56H79zM80,55H81V56H80zM4,56H5V57H4zM8,56H9V57H8zM9,56H10V57H9zM10,56H11V57H10zM16,56H17V57H16zM18,56H19V57H18zM20,56H21V57H20zM22,56H23V57H22zM23,56H24V57H23zM24,56H25V57H24zM25,56H26V57H25zM26,56H27V57H26zM28,56H29V57H28zM29,56H30V57H29zM30,56H31V57H30zM33,56H34V57H33zM35,56H36V57H35zM39,56H40V57H39zM40,56H41V57H40zM41,56H42V57H41zM42,56H43V57H42zM47,56H48V57H47zM49,56H50V57H49zM54,56H55V57H54zM55,56H56V57H55zM60,56H61V57H60zM62,56H63V57H62zM65,56H66V57H65zM66,56H67V57H66zM67,56H68V57H67zM68,56H69V57H68zM72,56H73V57H72zM73,56H74V57H73zM78,56H79V57H78zM79,56H80V57H79zM6,57H7V58H6zM7,57H8V58H7zM8,57H9V58H8zM14,57H15V58H14zM15,57H16V58H15zM16,57H17V58H16zM18,57H19V58H18zM19,57H20V58H19zM21,57H22V58H21zM22,57H23V58H22zM25,57H26V58H25zM26,57H27V58H26zM28,57H29V58H28zM30,57H31V58H30zM31,57H32V58H31zM32,57H33V58H32zM33,57H34V58H33zM34,57H35V58H34zM37,57H38V58H37zM41,57H42V58H41zM43,57H44V58H43zM44,57H45V58H44zM45,57H46V58H45zM46,57H47V58H46zM47,57H48V58H47zM49,57H50V58H49zM51,57H52V58H51zM52,57H53V58H52zM56,57H57V58H56zM59,57H60V58H59zM60,57H61V58H60zM63,57H64V58H63zM64,57H65V58H64zM70,57H71V58H70zM72,57H73V58H72zM73,57H74V58H73zM74,57H75V58H74zM76,57H77V58H76zM77,57H78V58H77zM78,57H79V58H78zM80,57H81V58H80zM7,58H8V59H7zM9,58H10V59H9zM10,58H11V59H10zM11,58H12V59H11zM14,58H15V59H14zM16,58H17V59H16zM17,58H18V59H17zM18,58H19V59H18zM20,58H21V59H20zM21,58H22V59H21zM24,58H25V59H24zM25,58H26V59H25zM26,58H27V59H26zM27,58H28V59H27zM28,58H29V59H28zM29,58H30V59H29zM30,58H31V59H30zM36,58H37V59H36zM45,58H46V59H45zM46,58H47V59H46zM49,58H50V59H49zM51,58H52V59H51zM52,58H53V59H52zM54,58H55V59H54zM55,58H56V59H55zM59,58H60V59H59zM60,58H61V59H60zM63,58H64V59H63zM66,58H67V59H66zM71,58H72V59H71zM72,58H73V59H72zM73,58H74V59H73zM74,58H75V59H74zM76,58H77V59H76zM79,58H80V59H79zM80,58H81V59H80zM4,59H5V60H4zM6,59H7V60H6zM7,59H8V60H7zM8,59H9V60H8zM9,59H10V60H9zM11,59H12V60H11zM14,59H15V60H14zM19,59H20V60H19zM20,59H21V60H20zM22,59H23V60H22zM24,59H25V60H24zM26,59H27V60H26zM27,59H28V60H27zM29,59H30V60H29zM30,59H31V60H30zM31,59H32V60H31zM33,59H34V60H33zM35,59H36V60H35zM38,59H39V60H38zM39,59H40V60H39zM40,59H41V60H40zM41,59H42V60H41zM43,59H44V60H43zM46,59H47V60H46zM49,59H50V60H49zM50,59H51V60H50zM52,59H53V60H52zM55,59H56V60H55zM56,59H57V60H56zM57,59H58V60H57zM58,59H59V60H58zM60,59H61V60H60zM63,59H64V60H63zM64,59H65V60H64zM66,59H67V60H66zM67,59H68V60H67zM70,59H71V60H70zM73,59H74V60H73zM74,59H75V60H74zM75,59H76V60H75zM77,59H78V60H77zM79,59H80V60H79zM80,59H81V60H80zM5,60H6V61H5zM6,60H7V61H6zM8,60H9V61H8zM9,60H10V61H9zM10,60H11V61H10zM11,60H12V61H11zM15,60H16V61H15zM16,60H17V61H16zM17,60H18V61H17zM18,60H19V61H18zM23,60H24V61H23zM24,60H25V61H24zM25,60H26V61H25zM26,60H27V61H26zM28,60H29V61H28zM35,60H36V61H35zM37,60H38V61H37zM40,60H41V61H40zM45,60H46V61H45zM46,60H47V61H46zM47,60H48V61H47zM52,60H53V61H52zM53,60H54V61H53zM54,60H55V61H54zM55,60H56V61H55zM56,60H57V61H56zM57,60H58V61H57zM60,60H61V61H60zM64,60H65V61H64zM65,60H66V61H65zM67,60H68V61H67zM68,60H69V61H68zM71,60H72V61H71zM73,60H74V61H73zM75,60H76V61H75zM77,60H78V61H77zM5,61H6V62H5zM7,61H8V62H7zM8,61H9V62H8zM12,61H13V62H12zM16,61H17V62H16zM17,61H18V62H17zM18,61H19V62H18zM22,61H23V62H22zM25,61H26V62H25zM29,61H30V62H29zM30,61H31V62H30zM31,61H32V62H31zM33,61H34V62H33zM36,61H37V62H36zM37,61H38V62H37zM38,61H39V62H38zM39,61H40V62H39zM40,61H41V62H40zM41,61H42V62H41zM42,61H43V62H42zM43,61H44V62H43zM46,61H47V62H46zM48,61H49V62H48zM49,61H50V62H49zM58,61H59V62H58zM59,61H60V62H59zM63,61H64V62H63zM70,61H71V62H70zM71,61H72V62H71zM75,61H76V62H75zM76,61H77V62H76zM78,61H79V62H78zM79,61H80V62H79zM80,61H81V62H80zM4,62H5V63H4zM5,62H6V63H5zM9,62H10V63H9zM10,62H11V63H10zM11,62H12V63H11zM12,62H13V63H12zM14,62H15V63H14zM15,62H16V63H15zM18,62H19V63H18zM19,62H20V63H19zM21,62H22V63H21zM23,62H24V63H23zM24,62H25V63H24zM25,62H26V63H25zM31,62H32V63H31zM32,62H33V63H32zM34,62H35V63H34zM35,62H36V63H35zM38,62H39V63H38zM40,62H41V63H40zM41,62H42V63H41zM43,62H44V63H43zM44,62H45V63H44zM45,62H46V63H45zM46,62H47V63H46zM47,62H48V63H47zM49,62H50V63H49zM50,62H51V63H50zM52,62H53V63H52zM53,62H54V63H53zM54,62H55V63H54zM59,62H60V63H59zM63,62H64V63H63zM64,62H65V63H64zM65,62H66V63H65zM67,62H68V63H67zM68,62H69V63H68zM72,62H73V63H72zM75,62H76V63H75zM78,62H79V63H78zM4,63H5V64H4zM5,63H6V64H5zM6,63H7V64H6zM8,63H9V64H8zM9,63H10V64H9zM12,63H13V64H12zM15,63H16V64H15zM16,63H17V64H16zM17,63H18V64H17zM21,63H22V64H21zM23,63H24V64H23zM25,63H26V64H25zM29,63H30V64H29zM31,63H32V64H31zM33,63H34V64H33zM35,63H36V64H35zM36,63H37V64H36zM39,63H40V64H39zM41,63H42V64H41zM42,63H43V64H42zM44,63H45V64H44zM45,63H46V64H45zM46,63H47V64H46zM47,63H48V64H47zM48,63H49V64H48zM50,63H51V64H50zM52,63H53V64H52zM54,63H55V64H54zM56,63H57V64H56zM58,63H59V64H58zM59,63H60V64H59zM60,63H61V64H60zM61,63H62V64H61zM62,63H63V64H62zM63,63H64V64H63zM66,63H67V64H66zM68,63H69V64H68zM71,63H72V64H71zM73,63H74V64H73zM75,63H76V64H75zM79,63H80V64H79zM5,64H6V65H5zM6,64H7V65H6zM8,64H9V65H8zM10,64H11V65H10zM11,64H12V65H11zM12,64H13V65H12zM14,64H15V65H14zM16,64H17V65H16zM17,64H18V65H17zM22,64H23V65H22zM25,64H26V65H25zM26,64H27V65H26zM27,64H28V65H27zM29,64H30V65H29zM30,64H31V65H30zM34,64H35V65H34zM36,64H37V65H36zM37,64H38V65H37zM38,64H39V65H38zM40,64H41V65H40zM41,64H42V65H41zM44,64H45V65H44zM45,64H46V65H45zM47,64H48V65H47zM48,64H49V65H48zM49,64H50V65H49zM50,64H51V65H50zM51,64H52V65H51zM54,64H55V65H54zM55,64H56V65H55zM56,64H57V65H56zM57,64H58V65H57zM58,64H59V65H58zM59,64H60V65H59zM60,64H61V65H60zM63,64H64V65H63zM65,64H66V65H65zM67,64H68V65H67zM68,64H69V65H68zM71,64H72V65H71zM72,64H73V65H72zM74,64H75V65H74zM75,64H76V65H75zM76,64H77V65H76zM77,64H78V65H77zM78,64H79V65H78zM79,64H80V65H79zM80,64H81V65H80zM5,65H6V66H5zM7,65H8V66H7zM8,65H9V66H8zM13,65H14V66H13zM16,65H17V66H16zM20,65H21V66H20zM24,65H25V66H24zM25,65H26V66H25zM26,65H27V66H26zM27,65H28V66H27zM28,65H29V66H28zM30,65H31V66H30zM33,65H34V66H33zM34,65H35V66H34zM35,65H36V66H35zM37,65H38V66H37zM41,65H42V66H41zM44,65H45V66H44zM45,65H46V66H45zM46,65H47V66H46zM47,65H48V66H47zM51,65H52V66H51zM52,65H53V66H52zM54,65H55V66H54zM55,65H56V66H55zM60,65H61V66H60zM66,65H67V66H66zM68,65H69V66H68zM70,65H71V66H70zM72,65H73V66H72zM73,65H74V66H73zM75,65H76V66H75zM76,65H77V66H76zM77,65H78V66H77zM79,65H80V66H79zM80,65H81V66H80zM5,66H6V67H5zM7,66H8V67H7zM10,66H11V67H10zM12,66H13V67H12zM13,66H14V67H13zM14,66H15V67H14zM15,66H16V67H15zM16,66H17V67H16zM20,66H21V67H20zM22,66H23V67H22zM23,66H24V67H23zM24,66H25V67H24zM25,66H26V67H25zM27,66H28V67H27zM28,66H29V67H28zM31,66H32V67H31zM38,66H39V67H38zM39,66H40V67H39zM42,66H43V67H42zM46,66H47V67H46zM47,66H48V67H47zM49,66H50V67H49zM50,66H51V67H50zM52,66H53V67H52zM53,66H54V67H53zM56,66H57V67H56zM57,66H58V67H57zM59,66H60V67H59zM62,66H63V67H62zM63,66H64V67H63zM64,66H65V67H64zM65,66H66V67H65zM66,66H67V67H66zM67,66H68V67H67zM68,66H69V67H68zM73,66H74V67H73zM74,66H75V67H74zM75,66H76V67H75zM76,66H77V67H76zM77,66H78V67H77zM78,66H79V67H78zM79,66H80V67H79zM4,67H5V68H4zM11,67H12V68H11zM12,67H13V68H12zM14,67H15V68H14zM16,67H17V68H16zM20,67H21V68H20zM24,67H25V68H24zM26,67H27V68H26zM29,67H30V68H29zM32,67H33V68H32zM34,67H35V68H34zM35,67H36V68H35zM36,67H37V68H36zM37,67H38V68H37zM41,67H42V68H41zM44,67H45V68H44zM46,67H47V68H46zM48,67H49V68H48zM50,67H51V68H50zM51,67H52V68H51zM52,67H53V68H52zM54,67H55V68H54zM58,67H59V68H58zM60,67H61V68H60zM62,67H63V68H62zM63,67H64V68H63zM65,67H66V68H65zM69,67H70V68H69zM70,67H71V68H70zM71,67H72V68H71zM72,67H73V68H72zM77,67H78V68H77zM78,67H79V68H78zM79,67H80V68H79zM4,68H5V69H4zM6,68H7V69H6zM8,68H9V69H8zM10,68H11V69H10zM12,68H13V69H12zM13,68H14V69H13zM14,68H15V69H14zM18,68H19V69H18zM19,68H20V69H19zM20,68H21V69H20zM21,68H22V69H21zM22,68H23V69H22zM24,68H25V69H24zM25,68H26V69H25zM26,68H27V69H26zM27,68H28V69H27zM28,68H29V69H28zM29,68H30V69H29zM30,68H31V69H30zM37,68H38V69H37zM38,68H39V69H38zM39,68H40V69H39zM40,68H41V69H40zM41,68H42V69H41zM46,68H47V69H46zM47,68H48V69H47zM48,68H49V69H48zM50,68H51V69H50zM52,68H53V69H52zM54,68H55V69H54zM55,68H56V69H55zM56,68H57V69H56zM61,68H62V69H61zM64,68H65V69H64zM65,68H66V69H65zM67,68H68V69H67zM68,68H69V69H68zM69,68H70V69H69zM4,69H5V70H4zM6,69H7V70H6zM7,69H8V70H7zM8,69H9V70H8zM9,69H10V70H9zM13,69H14V70H13zM14,69H15V70H14zM16,69H17V70H16zM20,69H21V70H20zM23,69H24V70H23zM27,69H28V70H27zM31,69H32V70H31zM33,69H34V70H33zM34,69H35V70H34zM35,69H36V70H35zM37,69H38V70H37zM38,69H39V70H38zM40,69H41V70H40zM41,69H42V70H41zM43,69H44V70H43zM44,69H45V70H44zM46,69H47V70H46zM48,69H49V70H48zM50,69H51V70H50zM52,69H53V70H52zM55,69H56V70H55zM60,69H61V70H60zM63,69H64V70H63zM64,69H65V70H64zM66,69H67V70H66zM67,69H68V70H67zM71,69H72V70H71zM73,69H74V70H73zM74,69H75V70H74zM76,69H77V70H76zM79,69H80V70H79zM80,69H81V70H80zM5,70H6V71H5zM8,70H9V71H8zM9,70H10V71H9zM10,70H11V71H10zM11,70H12V71H11zM13,70H14V71H13zM14,70H15V71H14zM30,70H31V71H30zM32,70H33V71H32zM33,70H34V71H33zM35,70H36V71H35zM36,70H37V71H36zM37,70H38V71H37zM38,70H39V71H38zM39,70H40V71H39zM41,70H42V71H41zM43,70H44V71H43zM49,70H50V71H49zM51,70H52V71H51zM54,70H55V71H54zM55,70H56V71H55zM56,70H57V71H56zM57,70H58V71H57zM59,70H60V71H59zM61,70H62V71H61zM64,70H65V71H64zM66,70H67V71H66zM67,70H68V71H67zM69,70H70V71H69zM71,70H72V71H71zM75,70H76V71H75zM77,70H78V71H77zM79,70H80V71H79zM80,70H81V71H80zM8,71H9V72H8zM17,71H18V72H17zM18,71H19V72H18zM22,71H23V72H22zM23,71H24V72H23zM26,71H27V72H26zM27,71H28V72H27zM28,71H29V72H28zM29,71H30V72H29zM30,71H31V72H30zM34,71H35V72H34zM35,71H36V72H35zM36,71H37V72H36zM37,71H38V72H37zM38,71H39V72H38zM41,71H42V72H41zM42,71H43V72H42zM43,71H44V72H43zM44,71H45V72H44zM49,71H50V72H49zM50,71H51V72H50zM51,71H52V72H51zM52,71H53V72H52zM55,71H56V72H55zM56,71H57V72H56zM57,71H58V72H57zM59,71H60V72H59zM61,71H62V72H61zM63,71H64V72H63zM65,71H66V72H65zM66,71H67V72H66zM68,71H69V72H68zM69,71H70V72H69zM72,71H73V72H72zM77,71H78V72H77zM79,71H80V72H79zM80,71H81V72H80zM5,72H6V73H5zM6,72H7V73H6zM7,72H8V73H7zM8,72H9V73H8zM10,72H11V73H10zM11,72H12V73H11zM12,72H13V73H12zM14,72H15V73H14zM17,72H18V73H17zM18,72H19V73H18zM20,72H21V73H20zM22,72H23V73H22zM23,72H24V73H23zM24,72H25V73H24zM25,72H26V73H25zM26,72H27V73H26zM28,72H29V73H28zM29,72H30V73H29zM30,72H31V73H30zM31,72H32V73H31zM32,72H33V73H32zM34,72H35V73H34zM35,72H36V73H35zM37,72H38V73H37zM39,72H40V73H39zM40,72H41V73H40zM42,72H43V73H42zM43,72H44V73H43zM47,72H48V73H47zM49,72H50V73H49zM50,72H51V73H50zM51,72H52V73H51zM52,72H53V73H52zM53,72H54V73H53zM54,72H55V73H54zM55,72H56V73H55zM56,72H57V73H56zM57,72H58V73H57zM58,72H59V73H58zM60,72H61V73H60zM64,72H65V73H64zM65,72H66V73H65zM66,72H67V73H66zM67,72H68V73H67zM68,72H69V73H68zM69,72H70V73H69zM70,72H71V73H70zM71,72H72V73H71zM72,72H73V73H72zM73,72H74V73H73zM74,72H75V73H74zM75,72H76V73H75zM76,72H77V73H76zM78,72H79V73H78zM79,72H80V73H79zM80,72H81V73H80zM12,73H13V74H12zM13,73H14V74H13zM15,73H16V74H15zM16,73H17V74H16zM18,73H19V74H18zM20,73H21V74H20zM21,73H22V74H21zM25,73H26V74H25zM27,73H28V74H27zM28,73H29V74H28zM32,73H33V74H32zM33,73H34V74H33zM34,73H35V74H34zM35,73H36V74H35zM36,73H37V74H36zM37,73H38V74H37zM38,73H39V74H38zM39,73H40V74H39zM40,73H41V74H40zM42,73H43V74H42zM45,73H46V74H45zM46,73H47V74H46zM48,73H49V74H48zM50,73H51V74H50zM54,73H55V74H54zM59,73H60V74H59zM62,73H63V74H62zM63,73H64V74H63zM64,73H65V74H64zM70,73H71V74H70zM72,73H73V74H72zM76,73H77V74H76zM78,73H79V74H78zM4,74H5V75H4zM5,74H6V75H5zM6,74H7V75H6zM7,74H8V75H7zM8,74H9V75H8zM9,74H10V75H9zM10,74H11V75H10zM12,74H13V75H12zM14,74H15V75H14zM19,74H20V75H19zM23,74H24V75H23zM25,74H26V75H25zM26,74H27V75H26zM28,74H29V75H28zM30,74H31V75H30zM32,74H33V75H32zM36,74H37V75H36zM37,74H38V75H37zM38,74H39V75H38zM40,74H41V75H40zM42,74H43V75H42zM44,74H45V75H44zM47,74H48V75H47zM49,74H50V75H49zM50,74H51V75H50zM52,74H53V75H52zM54,74H55V75H54zM56,74H57V75H56zM58,74H59V75H58zM61,74H62V75H61zM62,74H63V75H62zM65,74H66V75H65zM66,74H67V75H66zM67,74H68V75H67zM72,74H73V75H72zM74,74H75V75H74zM76,74H77V75H76zM77,74H78V75H77zM78,74H79V75H78zM79,74H80V75H79zM4,75H5V76H4zM10,75H11V76H10zM12,75H13V76H12zM13,75H14V76H13zM15,75H16V76H15zM16,75H17V76H16zM18,75H19V76H18zM19,75H20V76H19zM20,75H21V76H20zM25,75H26V76H25zM26,75H27V76H26zM28,75H29V76H28zM32,75H33V76H32zM33,75H34V76H33zM35,75H36V76H35zM36,75H37V76H36zM38,75H39V76H38zM39,75H40V76H39zM40,75H41V76H40zM41,75H42V76H41zM42,75H43V76H42zM45,75H46V76H45zM47,75H48V76H47zM48,75H49V76H48zM50,75H51V76H50zM54,75H55V76H54zM55,75H56V76H55zM57,75H58V76H57zM58,75H59V76H58zM59,75H60V76H59zM71,75H72V76H71zM72,75H73V76H72zM76,75H77V76H76zM4,76H5V77H4zM6,76H7V77H6zM7,76H8V77H7zM8,76H9V77H8zM10,76H11V77H10zM14,76H15V77H14zM16,76H17V77H16zM17,76H18V77H17zM19,76H20V77H19zM22,76H23V77H22zM25,76H26V77H25zM27,76H28V77H27zM28,76H29V77H28zM29,76H30V77H29zM30,76H31V77H30zM31,76H32V77H31zM32,76H33V77H32zM36,76H37V77H36zM40,76H41V77H40zM41,76H42V77H41zM45,76H46V77H45zM46,76H47V77H46zM48,76H49V77H48zM50,76H51V77H50zM51,76H52V77H51zM52,76H53V77H52zM53,76H54V77H53zM54,76H55V77H54zM55,76H56V77H55zM56,76H57V77H56zM59,76H60V77H59zM60,76H61V77H60zM61,76H62V77H61zM63,76H64V77H63zM67,76H68V77H67zM68,76H69V77H68zM69,76H70V77H69zM70,76H71V77H70zM71,76H72V77H71zM72,76H73V77H72zM73,76H74V77H73zM74,76H75V77H74zM75,76H76V77H75zM76,76H77V77H76zM77,76H78V77H77zM79,76H80V77H79zM80,76H81V77H80zM4,77H5V78H4zM6,77H7V78H6zM7,77H8V78H7zM8,77H9V78H8zM10,77H11V78H10zM15,77H16V78H15zM16,77H17V78H16zM18,77H19V78H18zM20,77H21V78H20zM21,77H22V78H21zM22,77H23V78H22zM25,77H26V78H25zM26,77H27V78H26zM31,77H32V78H31zM33,77H34V78H33zM34,77H35V78H34zM37,77H38V78H37zM41,77H42V78H41zM42,77H43V78H42zM44,77H45V78H44zM46,77H47V78H46zM47,77H48V78H47zM48,77H49V78H48zM49,77H50V78H49zM52,77H53V78H52zM53,77H54V78H53zM54,77H55V78H54zM56,77H57V78H56zM58,77H59V78H58zM59,77H60V78H59zM63,77H64V78H63zM64,77H65V78H64zM65,77H66V78H65zM66,77H67V78H66zM70,77H71V78H70zM71,77H72V78H71zM72,77H73V78H72zM73,77H74V78H73zM74,77H75V78H74zM76,77H77V78H76zM77,77H78V78H77zM78,77H79V78H78zM4,78H5V79H4zM6,78H7V79H6zM7,78H8V79H7zM8,78H9V79H8zM10,78H11V79H10zM13,78H14V79H13zM15,78H16V79H15zM16,78H17V79H16zM18,78H19V79H18zM19,78H20V79H19zM22,78H23V79H22zM24,78H25V79H24zM27,78H28V79H27zM28,78H29V79H28zM30,78H31V79H30zM31,78H32V79H31zM35,78H36V79H35zM40,78H41V79H40zM44,78H45V79H44zM45,78H46V79H45zM47,78H48V79H47zM48,78H49V79H48zM54,78H55V79H54zM55,78H56V79H55zM56,78H57V79H56zM57,78H58V79H57zM59,78H60V79H59zM60,78H61V79H60zM61,78H62V79H61zM62,78H63V79H62zM63,78H64V79H63zM65,78H66V79H65zM72,78H73V79H72zM74,78H75V79H74zM75,78H76V79H75zM76,78H77V79H76zM77,78H78V79H77zM78,78H79V79H78zM79,78H80V79H79zM4,79H5V80H4zM10,79H11V80H10zM12,79H13V80H12zM13,79H14V80H13zM16,79H17V80H16zM18,79H19V80H18zM20,79H21V80H20zM21,79H22V80H21zM22,79H23V80H22zM25,79H26V80H25zM27,79H28V80H27zM28,79H29V80H28zM29,79H30V80H29zM30,79H31V80H30zM31,79H32V80H31zM33,79H34V80H33zM34,79H35V80H34zM35,79H36V80H35zM38,79H39V80H38zM40,79H41V80H40zM41,79H42V80H41zM42,79H43V80H42zM46,79H47V80H46zM47,79H48V80H47zM49,79H50V80H49zM50,79H51V80H50zM51,79H52V80H51zM55,79H56V80H55zM58,79H59V80H58zM59,79H60V80H59zM63,79H64V80H63zM64,79H65V80H64zM65,79H66V80H65zM67,79H68V80H67zM69,79H70V80H69zM70,79H71V80H70zM72,79H73V80H72zM74,79H75V80H74zM77,79H78V80H77zM78,79H79V80H78zM80,79H81V80H80zM4,80H5V81H4zM5,80H6V81H5zM6,80H7V81H6zM7,80H8V81H7zM8,80H9V81H8zM9,80H10V81H9zM10,80H11V81H10zM12,80H13V81H12zM17,80H18V81H17zM21,80H22V81H21zM23,80H24V81H23zM24,80H25V81H24zM25,80H26V81H25zM26,80H27V81H26zM27,80H28V81H27zM28,80H29V81H28zM29,80H30V81H29zM30,80H31V81H30zM31,80H32V81H31zM35,80H36V81H35zM38,80H39V81H38zM39,80H40V81H39zM40,80H41V81H40zM45,80H46V81H45zM55,80H56V81H55zM56,80H57V81H56zM60,80H61V81H60zM61,80H62V81H61zM62,80H63V81H62zM64,80H65V81H64zM65,80H66V81H65zM67,80H68V81H67zM70,80H71V81H70zM71,80H72V81H71zM74,80H75V81H74zM76,80H77V81H76zM77,80H78V81H77zM78,80H79V81H78z" id="qr-path" fill="#000000" fill-opacity="1" fill-rule="nonzero" stroke="none"/></svg>